<svg xmlns="http://www.w3.org/2000/svg" xmlns:xlink="http://www.w3.org/1999/xlink" viewBox="0 0 309.03 1080"><defs><style>.cls-1{fill:url(#linear-gradient);}</style><linearGradient id="linear-gradient" x1="148.2" y1="1.98" x2="158.86" y2="1082.61" gradientUnits="userSpaceOnUse"><stop offset="0" stop-color="#eaa1fd"/><stop offset="0.11" stop-color="#e5a4fd"/><stop offset="0.25" stop-color="#d6affc"/><stop offset="0.4" stop-color="#bebffa"/><stop offset="0.56" stop-color="#9dd7f8"/><stop offset="0.72" stop-color="#72f5f5"/><stop offset="0.76" stop-color="#66fdf4"/><stop offset="1" stop-color="#dbdbdb"/></linearGradient></defs><title>dna-inverted-mask</title><g id="Layer_2" data-name="Layer 2"><path class="cls-1" d="M272.28,1041.56l.89-.65c19.32-14.24,21.41-39.58,21.41-49.81a92,92,0,0,0-5.35-32.16c0-.17,0-.35,0-.51l0-.31c-.24-.71-.55-1.5-.91-2.34l-.19-.64,0,.12c-4-9-14.71-24.43-31.14-36.26l7.41-5.44a60.1,60.1,0,0,0,14.38-16.4c.67-1.12,2-4.25,2.23-4.62,4.47-8.85,5.47-19.85,5.68-29.44a86.11,86.11,0,0,0-5.36-32.19c0-.16,0-.32,0-.48v-.18l-.06-.17C274.46,812.24,262,798.39,242,786.49c-29-17.24-56.72-33.83-57-34-.56-.3-56.34-30.2-86.94-48l-3-1.84c6.77-4.53,14.13-9.26,22.16-14.27,12.66-7.91,97.79-56.44,115-66,17.77-9.87,22.08-13,40.21-26.41l.89-.65c19.32-14.24,21.41-39.58,21.41-49.81a91.88,91.88,0,0,0-5.47-32.49l0-.29c-.09-.28-.2-.58-.31-.88l-.69-2.3-.11.38c-4-9-14.75-24.53-31.26-36.38l7.6-5.58a60.1,60.1,0,0,0,14.38-16.4c.66-1.12,2-4.26,2.23-4.62,4.47-8.85,5.47-19.85,5.68-29.44a86.31,86.31,0,0,0-5.46-32.48v-.16l-.06-.17c-.32-.83-.65-1.64-1-2.46l-1-2.66V380c-7.05-15.57-19-28-37.15-38.82-29-17.24-56.72-33.83-57-34-.56-.3-56.34-30.2-86.94-48L94.49,257c7.16-4.83,15-9.88,23.63-15.26,12.66-7.91,97.79-56.44,115-66,17.77-9.87,22.08-13,40.21-26.41l.89-.65c19.32-14.24,21.41-39.58,21.41-49.81a91.78,91.78,0,0,0-5.47-32.48l0-.3-.32-.88-.69-2.3-.11.38c-4-9-14.75-24.52-31.26-36.38,2.27-1.65,4.76-3.49,7.6-5.58A60.1,60.1,0,0,0,279.68,4.9c.66-1.12,2-4.25,2.23-4.62,0-.09.08-.19.13-.28h-2.22A50,50,0,0,1,265,19l-.89.66c-3.07,2.26-5.73,4.22-8.13,6h0l-.57.42c-11.11,8.09-16.56,11.68-31.25,19.84l-2.88,1.61-3.07,1.71.05,0c-7.61,4.29-20.08,11.34-21.5,12.15-8.61,4.9-18.31,10.43-28.06,16C160.77,82,152.82,86.5,145.4,90.77,145,91,110.34,111.19,109.06,112,71.66,135.35,48.35,152.47,35,173.12a65.7,65.7,0,0,0-9.37,19.4h0c0,.06-2,4.86-2.5,6.52-.06.21-.13.41-.18.62a52.37,52.37,0,0,0-1.61,7.5c-.36,2.46-.56,4.86-.67,7.12,0,.58,0,1.14-.06,1.69,0,.28,0,.55,0,.83s0,.54,0,.8c0,.95,0,1.86,0,2.72a100.81,100.81,0,0,1-5-27.53c-.75-17.72-.21-42.37,12.35-56.1.27-.3.45-.64.71-.94,8.73-10.33,24.9-23.75,26.57-25.14C95.39,78.17,130,58.41,163.47,39.29c9.87-5.64,19.2-11,28.64-16.59C207.73,13.38,220.73,5.54,229.88,0H226l-6.38,3.85-3.3-2L213.19,0H209.3l6,3.59L217.68,5c-8,4.83-16.93,10.18-26.56,15.93q-4,2.37-8,4.69C172.48,19.35,164,14.48,163.92,14.44Q151.21,7.06,139.59,0h-3.86q12.93,7.89,27.19,16.17c.08,0,8.06,4.62,18.27,10.62-6.13,3.56-12.3,7.1-18.71,10.76C128.94,56.71,94.26,76.52,54,109.07c-8.49,7.08-15.52,13.14-21.45,19.12-15.12,15.24-17,30.09-17.46,33.93-1.66,13.31-1.92,19.75-1.45,30.77A100.64,100.64,0,0,0,21,227.07l.07,0c0,.43.06.69.06.69a97.72,97.72,0,0,0,19,28.83c-13.88,14.69-20,30.28-18.57,64.34A100.41,100.41,0,0,0,29,355.07l.1.19c0,.3,0,.46,0,.46,9.49,22.41,26.24,36.93,39.76,47.08,23.37,17.53,54.69,37.74,93.1,60.07.08.05,8.06,4.62,18.27,10.62-6.13,3.56-12.3,7.1-18.71,10.76C128,503.41,93.35,523.22,53,555.77c-8.49,7.08-15.53,13.14-21.45,19.12-15.12,15.24-17,30.08-17.46,33.93-1.66,13.31-1.92,19.75-1.45,30.77a100.64,100.64,0,0,0,7.43,34.18l1.11-.53A97.86,97.86,0,0,0,40.34,702.1c-14.65,15-21.15,30.54-19.66,65.49a100.41,100.41,0,0,0,7.43,34.18l2.34,4.61-.25-3c9.64,21.08,25.66,35,38.7,44.75,23.37,17.53,54.69,37.74,93.1,60.07.09,0,8.14,4.67,18.41,10.7-6.2,3.61-12.45,7.18-18.94,10.89-33.54,19.16-68.22,39-108.53,71.52-8.49,7.08-15.52,13.14-21.45,19.12-15.12,15.24-17,30.09-17.46,33.93A159,159,0,0,0,12.41,1080h2c-.38-17.11,1.12-38.58,12.52-51,.27-.3.46-.64.71-.94,8.73-10.33,24.9-23.75,26.57-25.14,40.17-32.45,74.78-52.21,108.25-71.33,9.87-5.64,19.2-11,28.64-16.59,22.07-13.17,39-23.4,47.05-28.33,6.35-3.86,32.73-22.91,35.15-26.68a25.58,25.58,0,0,0,5.9-9c0-.08.05-.15.08-.22a30.45,30.45,0,0,0,2.27-12.14,94,94,0,0,1,3,24.51,81.6,81.6,0,0,1-1.45,15.2c-.16.8-2.76,20.39-19.14,33l-.89.66c-3,2.2-5.59,4.11-7.94,5.83l-.11-.07-.57.42c-11.11,8.1-16.56,11.68-31.25,19.84l-2.89,1.61-3.06,1.72.18.11c-7.59,4.28-20.3,11.46-21.73,12.28-8.61,4.9-18.31,10.43-28.06,16-7.91,4.52-15.86,9.07-23.28,13.34-.42.25-35.06,20.42-36.34,21.22-37.4,23.36-60.71,40.48-74,61.13A62.47,62.47,0,0,0,26.29,1080h2.26l.18-.46a73.54,73.54,0,0,1,8.84-15.85h97.92l10-10-10-10H55.88c8.51-7.58,19.24-15.6,33.5-25.07l66.7.07h2.42l-1.72-1.71a12.35,12.35,0,0,1-2.95-8.29,13.51,13.51,0,0,1,3-8.33l1.53-1.67h-37c1.7-1,46.73-26.91,46.89-27h38.28l-10-10,10-10H203.3l16-9.05,13.95,9.06H209.67l-10,10,10,10h52.65c11.42,8.44,15.8,12.8,17.39,15a42.85,42.85,0,0,1-7.84,6.92l-6.59,5.05H163.08l-.2,0c-.23,0-5.8,1.26-5.8,10s5.57,9.93,5.8,10l.1,0h72.63c-.27.17-40.3,24.19-41.68,25H138.67l10,10-10,10h20.52c-1.47.84-15.8,9.41-27.28,16.31h3.43l.94-.57c1.88-1.13,32.93-19.17,34.18-19.88,8.26-4.72,16.14-9.21,24-13.86,1.53-.9,50.67-30.46,51.67-31.06,8.22-4.94,20.06-14.14,20.06-14.14,11.16-7.8,15-12.42,15.09-12.54a31.93,31.93,0,0,0,5.18-7.44,29.51,29.51,0,0,0,3.07-14,94.33,94.33,0,0,1,3,24.54c0,9.93-2,34.5-20.59,48.19l-.89.66c-18.06,13.3-22.35,16.47-40,26.28-4.42,2.45-13.36,7.5-24.4,13.77h4.05c9.62-5.46,17.32-9.81,21.33-12C249.84,1058.1,254.15,1054.93,272.28,1041.56Zm14.9-528.42c0,1.08.08,2.25.15,3.5.31,5.23.72,12-3.56,19.24a1,1,0,0,1-.1.17c-.28.47-.58.93-.9,1.4-.08.11-.15.22-.22.33-.3.42-.62.84-.95,1.26l-.35.45-.24.27c-2.35-3-7.59-7.61-15.61-13.63h9.9l.12,0a5.25,5.25,0,0,0,2.47-1.77c1.17-1.4,2.33-3.88,2.33-8.25,0-8.68-4.57-9.92-4.76-10l-.12,0H236.57c-4.65-3.07-9.69-6.35-15.37-10l3-1.67c14.27-7.93,19.87-11.54,30.92-19.59C272.28,487,284.1,504.37,287.18,513.14Zm-124,40-.2,0c-.23.05-5.8,1.26-5.8,10s5.57,9.93,5.8,10l.1,0h72.63c-.27.17-40.3,24.19-41.68,25H138.77l10,10-10,10h20.52c-2.39,1.37-38.86,23.22-41.65,25H71.18l-.2,0c-.23.05-5.8,1.26-5.8,10s6.77,10,6.84,10H88.09c-1,.68-18,13.66-24.54,18.69C54.23,675,47.21,669,41.78,663.13h25s-4.74-4.19-4.55-10c.23-7,4.61-10,4.61-10H28.9l.11,0a44.15,44.15,0,0,1-1.36-4.3l-1.32,1.81.3-.73c0-.1,2-5.44,2.2-5.88a73.54,73.54,0,0,1,8.84-15.85h97.92l10-10-10-10H56c8.51-7.58,19.24-15.6,33.5-25.07l66.7.07h2.42l-1.72-1.71a12.35,12.35,0,0,1-2.95-8.29,13.51,13.51,0,0,1,3-8.33l1.53-1.67h-37c1.7-1,46.73-26.91,46.89-27h38.28l-10-10,10-10H203.4c.51-.3,9.83-5.56,15.81-8.93L233,506.14H209.76l-10,10,10,10h52.29c11.54,8.51,16,12.92,17.62,15.19a45.37,45.37,0,0,1-7.7,6.76l-6.59,5Zm99.51,2c-6.94,5.14-14.11,10.19-17.48,12.24l-6.2,3.76H163.3c-.6-.17-4.12-1.46-4.12-8s3.54-7.84,4.12-8Zm-72.06,45c-6.9,4-13.83,8-21.06,12.12l-6.79,3.88H143.59l8-8-8-8Zm-76.13,45c-7.69,5-15.55,10.26-23.61,16H72.28c-.65-.14-5.1-1.36-5.1-8s3.54-7.84,4.12-8Zm-87.84-2.7h-.32c.05-.14.11-.29.17-.43Zm12.41-26.3a117,117,0,0,1,14.61-16h81.09l8,8-8,8Zm53.41-45.07c5.23-3.42,10.8-7,16.73-10.67,1.72-1.07,4.76-2.89,8.79-5.26h36.23a15.31,15.31,0,0,0-2.3,8,15,15,0,0,0,2.23,8Zm79.31-46.93c9.88-5.65,19.61-11.19,28.08-16h1.9l-8,8,8,8Zm87.54,0H210.59l-8-8,8-8H275c.56.22,3.17,1.6,3.17,8,0,4-1,6-1.91,7a3.31,3.31,0,0,1-1.21.92H259.27ZM97,260.86c30.66,17.81,86.47,47.72,87,48,.27.16,28,16.76,57,34,19.5,11.6,31.64,25.05,38.18,42.31,0,.53,0,1.07.05,1.65,0,.23,0,.68.07,1.16s.05,1.16.09,1.82h0c.07,7.32.07,8.32-1.48,13.54,0,0-.31.84-.49,1.26a42.94,42.94,0,0,1-2,3.9,32.74,32.74,0,0,1-2.38,3.26c-2.35-3-7.61-7.63-15.69-13.69H264l.24,0c.2-.05,4.76-1.29,4.76-10s-4.56-9.92-4.76-10l-.12,0H228.57c-6.38-4.22-13.62-8.9-21.52-13.92-4.86-3.09-10.91-6.8-18-11.08h25l.24,0c.2-.05,4.76-1.29,4.76-10s-4.56-9.92-4.76-10l-.12,0H154.92c-14.09-8.19-27.47-16.26-39.83-24H142l.24,0c.2-.05,4.76-1.29,4.76-10s-4.56-9.92-4.76-10l-57.84,0c-5.76-3.92-11.28-7.8-16.45-11.56a299.82,299.82,0,0,1,25.29-19ZM197,441.07c-1.49,0-8-2-8-6.75,0-.16,0-1,0-1.24,0-6.65,4.47-7.86,5.1-8h63.3c-7.79,5.84-16.6,12.07-20.16,14.23l-2.91,1.77Zm34.09,2-12.36,7.47-3.3-2-9.18-5.5Zm-37.08-20h-.16c-.07,0-6.24,1.13-6.79,8.84-.4-.22-.87-.48-1.34-.76s-1-.58-1.47-.82a11.5,11.5,0,0,1,4.26-7.27H170.69c-17.67-9.6-32.92-18-45.45-25l59.18,0,10-10-10-10H91.62c-15.58-10-26.32-17.83-34.36-25h48.39s-4.64-5-4.64-9.5a13.44,13.44,0,0,1,4.51-10.5H40.42a48.82,48.82,0,0,1-4.76-11.66l-.1-.37.08-.19a82.08,82.08,0,0,1,5-11.78H72.42l-10-10,10-10H54.94a142.39,142.39,0,0,1,10.94-10.6c4.72,3.45,9.74,7,15,10.6H75.6l-10,10,10,10h35.73c12.26,7.73,25.58,15.8,39.62,24H110.84c-.06,0-6.83,1.24-6.83,10a9.61,9.61,0,0,0,7.86,10h73.25c8.36,5,15.37,9.28,20.85,12.76,6.88,4.38,13.26,8.49,19,12.25H187.6l10,10-10,10H254c11.62,8.57,16.08,13,17.71,15.26-.7,1.17-5.61,5.17-11.61,9.74Zm-9.87,2c-1.1,1.44-2.13,3.88-2.13,8a13.37,13.37,0,0,0,2.78,8H143.17c-.55-.22-3.16-1.61-3.16-8,0-.23,0-.46,0-.68s0-.37,0-.55c.22-5.14,1.82-6.51,2.2-6.77Zm-104-29c-.55-.22-3.16-1.61-3.16-8s2.64-7.79,3.16-8H183.6l8,8-8,8Zm-41-45c-.06,0-3.16-1-3.16-8,0-6.43,2.64-7.79,3.16-8h62.16c-1.16,1.51-2.32,4.12-2.32,8.5a12.53,12.53,0,0,0,2.75,7.5Zm3.07-44a92.17,92.17,0,0,1,11.66-16H67.59l-8,8,8,8Zm99.61-16c.55.22,3.16,1.61,3.16,8s-2.64,7.79-3.16,8H76.42l-8-8,8-8Zm72,44c.55.22,3.16,1.61,3.16,8s-2.64,7.79-3.16,8H112.09c-.69-.12-6.08-1.25-6.08-8s4.47-7.86,5.1-8Zm50,45c.55.22,3.16,1.61,3.16,8s-2.64,7.79-3.16,8H192.42l8-8-8-8ZM225.08,47.71C239.36,39.78,245,36.17,256,28.12c17.19,12.17,29,29.55,32.09,38.32,0,1.08.08,2.25.15,3.5.31,5.23.72,12-3.55,19.24l-.11.18c-.27.46-.58.92-.9,1.39-.07.11-.14.22-.22.33-.3.42-.62.84-.95,1.26l-.35.45c-.07.09-.16.18-.24.27-2.35-3-7.58-7.61-15.61-13.63h9.9l.12,0a5.17,5.17,0,0,0,2.47-1.77c1.17-1.4,2.33-3.88,2.33-8.25,0-8.68-4.57-9.92-4.76-10l-.12,0H237.48c-4.64-3.07-9.69-6.35-15.37-10Zm35.16,29.72H211.5l-8-8,8-8h64.43c.55.22,3.16,1.61,3.16,8,0,4-1,6-1.9,7a3.32,3.32,0,0,1-1.22.91H260.18Zm-59.46-16h1.9l-8,8,8,8h-30C182.58,71.78,192.31,66.24,200.78,61.43Zm-90.66,52.26c1.72-1.07,4.76-2.89,8.79-5.26h36.23a15.31,15.31,0,0,0-2.3,8,15,15,0,0,0,2.23,8l-61.68-.07C98.62,120.94,104.19,117.4,110.12,113.69ZM54.59,153.43h81.09l8,8-8,8H40A117,117,0,0,1,54.59,153.43ZM27.54,193.16c0-.1,2-5.44,2.2-5.88a73.54,73.54,0,0,1,8.84-15.85H136.5l10-10-10-10H56.89c8.51-7.58,19.24-15.6,33.5-25.07l66.7.07h2.42l-1.72-1.71a12.35,12.35,0,0,1-2.95-8.29,13.51,13.51,0,0,1,3-8.33l1.53-1.67h-37c1.7-1,46.73-26.91,46.89-27H207.5l-10-10,10-10h-3.19c.51-.3,9.84-5.56,15.82-8.93l13.75,8.94h-23.2l-10,10,10,10H263c11.54,8.51,16,12.92,17.63,15.19a45.62,45.62,0,0,1-7.71,6.76l-6.59,5.05H164.09l-.2,0c-.23,0-5.8,1.26-5.8,10s5.57,9.93,5.8,10l.1,0h72.63c-.27.17-40.3,24.19-41.68,25H139.68l10,10-10,10H160.2c-2.39,1.37-38.86,23.22-41.65,25H72.09l-.2,0c-.23.05-5.8,1.26-5.8,10s6.77,10,6.84,10H89c-1,.74-20.76,15.79-25.88,19.73-9.81-7.17-17-13.49-22.55-19.73H67.64s-4.74-4.19-4.55-10c.23-7,4.61-10,4.61-10H28.56c-.33-1-.64-2-.91-3l-.5.69C27.35,193.61,27.51,193.22,27.54,193.16ZM263.6,108.43c-6.94,5.14-14.11,10.19-17.48,12.24l-6.2,3.76H164.21c-.6-.17-4.12-1.46-4.12-8s3.54-7.84,4.12-8Zm-72.06,45c-6.9,4-13.83,8-21.06,12.12l-6.79,3.88H144.5l8-8-8-8Zm-76.13,45c-7.69,5-15.55,10.26-23.61,16H73.19c-.65-.14-5.1-1.36-5.1-8s3.54-7.84,4.12-8Zm-90.36,1.21c.05-.17.11-.36.18-.56h.15l1.76-.65H63.33c-1.07,1.43-2.11,3.87-2.24,8a11.79,11.79,0,0,0,2.47,8H25.25a4.76,4.76,0,0,1-2.38-2.93A55.88,55.88,0,0,1,25.05,199.64Zm-2.4,15.3h0l.14.14h-.16S22.65,215,22.65,214.94Zm.4,12.15c-.14-2.1-.37-5.51-.32-9.39,0-.34,0-.69,0-1.06s0-.69,0-1a5,5,0,0,0,2.2,1.46l13.51,0c5.6,6.48,13,13,23,20.36-7.8,6.5-14.45,12.07-20,17.68A96,96,0,0,1,23.05,227.09Zm5.57,121.24a100.43,100.43,0,0,1-5-27.53c-1.41-33.12,4.53-48.43,18-62.75l.39.4.73-.74C48.15,252,55,246.23,63.36,239.26l1.92-1.54-.5-.36c8.34-6.69,16.44-12.84,24.34-18.55q3.09-2.24,6.13-4.38c8.15-5.74,16.1-11,23.88-16,1.1-.71,14.24-8.9,18.16-11.26,1.88-1.13,32.93-19.17,34.18-19.88,8.26-4.72,16.14-9.21,24-13.86,1.53-.9,50.66-30.46,51.67-31.06,8.22-4.94,20.06-14.14,20.06-14.14,11.11-7.77,15-12.38,15.08-12.54l.29-.32c.12-.13.22-.26.33-.39.32-.37.64-.73.93-1.1s.4-.51.59-.76.41-.54.6-.81.43-.61.63-.91.23-.36.34-.54a29.3,29.3,0,0,0,4.45-16.93,93.89,93.89,0,0,1,3.13,24.91c0,9.93-2,34.5-20.59,48.19l-.89.66c-18.06,13.3-22.35,16.47-40,26.28-17.18,9.54-102.36,58.1-115,66-48.42,30.26-73.25,50-83.42,80.53l-.12.24,0,.08a48.07,48.07,0,0,0-2.41,6.21A68.57,68.57,0,0,0,28.62,348.33ZM163,461.14c-38.34-22.29-69.59-42.46-92.9-59.94-13.29-10-29.73-24.22-39-46.11-.35-5-1.11-16.33,2.12-26.8.38-1.26.83-2.5,1.32-3.71a51.38,51.38,0,0,0,3.75,8.73c-.31.14-4.24,1.77-4.24,9.77,0,8.68,4.56,9.92,4.76,10l15.52,0c7.85,7.26,18.32,15,33.65,25H80l-.24,0c-.2.05-4.76,1.29-4.76,10s4.56,9.92,4.76,10l.12,0h41.28c12.33,6.94,27.57,15.34,45.33,25H143l-.24,0c-.19.05-4.38,1.19-4.74,8.9,0,.34,0,.7,0,1.07,0,8.68,4.56,9.92,4.76,10l.12,0h45.76s-4.64-5-4.64-10a2.52,2.52,0,0,1,.12-.51l2.92,1.47a7.51,7.51,0,0,0,.1.86c1.36,7.18,8.71,8.17,8.73,8.17h6.47l12.06,7.21,2.36,1.41c-8,4.83-16.93,10.18-26.56,15.93q-4,2.37-8,4.69C171.57,466.05,163.09,461.18,163,461.14ZM20.44,653.87c-.36,2.46-.56,4.86-.67,7.12,0,.58,0,1.14-.06,1.69,0,.28,0,.55,0,.83s0,.54,0,.8c0,1,0,1.86,0,2.72a100.81,100.81,0,0,1-5-27.53c-.75-17.72-.21-42.37,12.35-56.1.27-.3.45-.64.71-.94,8.73-10.33,24.9-23.75,26.57-25.14,40.17-32.45,74.78-52.21,108.25-71.33,9.87-5.64,19.2-11,28.64-16.59,22.07-13.17,39-23.4,47.05-28.33,6.35-3.86,32.73-22.91,35.15-26.68a25.58,25.58,0,0,0,5.9-9c0-.09.06-.18.1-.27l.24-.65c.16-.41.31-.81.44-1.22s.26-.82.37-1.22l.09-.34c.12-.48.23-.94.33-1.41v0a34.49,34.49,0,0,0,.67-7.59,93.87,93.87,0,0,1,3.13,24.9,81.6,81.6,0,0,1-1.45,15.2c-.16.8-2.76,20.39-19.14,33l-.89.66c-3.07,2.25-5.73,4.22-8.14,6h0l-.57.42c-11.11,8.1-16.56,11.69-31.25,19.85-.82.45-1.79,1-2.88,1.61l-3.07,1.71.05,0c-7.61,4.3-20.09,11.35-21.5,12.16-8.61,4.9-18.31,10.43-28.06,16-7.91,4.52-15.86,9.07-23.28,13.34-.42.25-35.06,20.42-36.34,21.22-37.4,23.36-60.71,40.48-74.05,61.13a65.7,65.7,0,0,0-9.37,19.4h0c0,.06-2,4.86-2.5,6.52-.06.21-.13.41-.18.62A52.37,52.37,0,0,0,20.44,653.87Zm3.7-7.53c.11-.36.25-.78.41-1.21H62.42c-1.07,1.43-2.11,3.87-2.24,8a11.79,11.79,0,0,0,2.47,8H40l-.3-.35-16.33-.33A6.09,6.09,0,0,1,22,658.2,55.88,55.88,0,0,1,24.14,646.34Zm-1.09,26.11c-.15-2.1-.37-5.51-.33-9.4,0-.18,0-.37,0-.55a4.7,4.7,0,0,0,1.2.6l.12,0h15c5.6,6.34,12.9,12.73,22.81,20-.46.35-.76.58-.86.67-7.48,6.22-13.9,11.58-19.3,16.93A96.12,96.12,0,0,1,23.05,672.45ZM27.71,795a100.43,100.43,0,0,1-5-27.53c-1.45-34,4.84-49.24,19-63.91l.21.22.72-.75c5.5-5.69,12.33-11.47,20.71-18.45.2-.17,1.92-1.53,1.92-1.53l-.1-.07c7.88-6.29,15.54-12.09,23-17.5q3.09-2.24,6.13-4.38c8.15-5.74,16.1-11,23.88-16,1.1-.71,14.24-8.9,18.16-11.26,1.88-1.13,32.93-19.17,34.18-19.88,8.26-4.72,16.14-9.21,24-13.86,1.53-.9,50.66-30.46,51.67-31.06,8.22-4.94,20.06-14.14,20.06-14.14,11.11-7.77,15-12.38,15.08-12.54l.29-.32c.12-.13.21-.26.33-.39l.93-1.1.59-.76c.21-.27.4-.54.59-.81s.44-.61.64-.91.22-.36.34-.54a29.32,29.32,0,0,0,4.45-16.94,94,94,0,0,1,3.13,24.92c0,9.93-2,34.5-20.59,48.19l-.89.66c-18.06,13.3-22.35,16.47-40,26.28-17.18,9.54-102.36,58.1-115,66-48.42,30.26-73.25,50-83.42,80.53l-.12.24,0,.08a48.07,48.07,0,0,0-2.41,6.21A68.57,68.57,0,0,0,27.71,795Zm39.88-58.6-8,8,8,8H42.24a92.93,92.93,0,0,1,11.66-16ZM190.2,913q-4,2.37-8,4.69c-10.68-6.27-19.16-11.14-19.24-11.18C124.66,884.2,93.41,864,70.1,846.55c-13.29-10-29.73-24.22-39-46.11-.35-5-1.11-16.33,2.12-26.8.38-1.26.83-2.5,1.32-3.71a51.38,51.38,0,0,0,3.75,8.73c-.31.14-4.24,1.77-4.24,9.77,0,8.68,4.56,9.92,4.76,10l15.52,0c7.85,7.26,18.32,15,33.65,25H80l-.24,0c-.2,0-4.76,1.29-4.76,10s4.56,9.92,4.76,10l.12,0h41.28c12.33,6.94,27.57,15.34,45.33,25H143l-.24,0c-.19,0-4.38,1.19-4.74,8.9,0,.34,0,.7,0,1.07,0,8.68,4.56,9.92,4.76,10l.12,0h45.76s-4.64-5-4.64-10a2.52,2.52,0,0,1,.12-.51l2.92,1.47a7.26,7.26,0,0,0,.1.86c1.36,7.18,8.71,8.17,8.73,8.17h6.47l12.06,7.21,2.36,1.41C208.76,901.88,199.83,907.23,190.2,913Zm-151-132.55h62.16c-1.16,1.51-2.32,4.12-2.32,8.5a12.53,12.53,0,0,0,2.75,7.5H39.16c-.06,0-3.16-1-3.16-8C36,782,38.64,780.64,39.16,780.43Zm144.43,45,8,8-8,8H80.16c-.55-.22-3.16-1.61-3.16-8s2.64-7.79,3.16-8Zm.54,45c-1.1,1.44-2.13,3.88-2.13,8a13.37,13.37,0,0,0,2.78,8H143.16c-.55-.22-3.16-1.61-3.16-8,0-.23,0-.46,0-.68s0-.37,0-.55c.22-5.14,1.82-6.51,2.2-6.77ZM218.85,896l-3.43-2.05-9.18-5.5h25.09C227.88,890.53,223.69,893.06,218.85,896Zm18.39-11.32-2.91,1.77H197c-1.49,0-8-2-8-6.75,0-.16,0-1,0-1.24,0-6.65,4.47-7.86,5.1-8h63.3C249.61,876.27,240.8,882.5,237.24,884.66Zm34.38-25.8c-.6,1.1-5.42,5-11.37,9.57H193.84c-.07,0-6.24,1.13-6.79,8.84-.4-.22-.87-.48-1.34-.76s-1-.58-1.47-.82a11.5,11.5,0,0,1,4.26-7.27H170.68c-17.67-9.6-32.92-18-45.45-25l59.18,0,10-10-10-10H91.61c-15.58-10-26.32-17.83-34.36-25h48.39s-4.64-5-4.64-9.5a13.44,13.44,0,0,1,4.51-10.5H40.41a48.82,48.82,0,0,1-4.76-11.66l-.27-1a82.52,82.52,0,0,1,5.07-11.3h32l-10-10,10-10H55.28a148.69,148.69,0,0,1,11-10.34c4.61,3.37,9.52,6.84,14.63,10.34H75.59l-10,10,10,10h35.73c12.26,7.73,25.58,15.8,39.62,24H110.83c-.06,0-6.83,1.24-6.83,10a9.61,9.61,0,0,0,7.86,10h73.25c8.36,5,15.37,9.28,20.85,12.76,6.88,4.38,13.26,8.49,19,12.25H187.59l10,10-10,10H254c11.74,8.66,16.18,13.08,17.76,15.33ZM141.84,736.43c.55.22,3.16,1.61,3.16,8s-2.64,7.79-3.16,8H76.41l-8-8,8-8Zm72,44c.55.22,3.16,1.61,3.16,8s-2.64,7.79-3.16,8H112.08c-.69-.12-6.08-1.25-6.08-8s4.47-7.86,5.1-8Zm50,45c.55.22,3.16,1.61,3.16,8s-2.64,7.79-3.16,8H192.41l8-8-8-8Zm14,23.48s-.31.84-.49,1.26c-.55,1.2-1.08,2.25-1.6,3.17a29,29,0,0,1-2.71,3.78c-2.35-3-7.61-7.63-15.69-13.69H264l.24,0c.2,0,4.76-1.29,4.76-10s-4.56-9.92-4.76-10l-.12,0H228.56c-6.38-4.22-13.62-8.9-21.52-13.92-4.86-3.09-10.91-6.8-18-11.08h25l.24,0c.2,0,4.76-1.29,4.76-10s-4.56-9.92-4.76-10l-.12,0H154.91c-14.09-8.19-27.47-16.26-39.83-24H142l.24,0c.2,0,4.76-1.29,4.76-10s-4.56-9.92-4.76-10l-57.84,0c-5.76-3.92-11.28-7.8-16.45-11.56a299.82,299.82,0,0,1,25.29-19L97,706.21c30.66,17.81,86.47,47.72,87,48,.27.16,28,16.76,57,34,19.42,11.55,31.53,24.93,38.09,42.08v.4c0,.54,0,1.1.05,1.69s.17,2.59.17,3C279.37,842.69,279.37,843.69,277.82,848.91ZM134.67,1045.69l8,8-8,8H39a117,117,0,0,1,14.61-16Zm19.46-45a15.31,15.31,0,0,0-2.3,8,15,15,0,0,0,2.23,8l-61.68-.07c5.23-3.42,10.8-7,16.73-10.67,1.72-1.07,4.76-2.89,8.79-5.26Zm39.54-39,8,8h-30c9.88-5.65,19.61-11.19,28.08-16h1.9Zm-24.2,96.12-6.79,3.88H143.49l8-8-8-8h47C183.63,1049.72,176.7,1053.68,169.47,1057.81Zm75.64-44.88-6.2,3.76H163.2c-.6-.17-4.12-1.46-4.12-8s3.54-7.84,4.12-8h99.39C255.65,1005.83,248.48,1010.88,245.11,1012.93Zm14.5-43.24H210.5l-8-8,8-8h64.42c.55.22,3.16,1.61,3.16,8a13.06,13.06,0,0,1-1.07,5.76,4.17,4.17,0,0,1-1.95,2H259.27Zm25.05,9.93c-.08.15-.14.3-.22.45s-.21.38-.32.57a29.49,29.49,0,0,1-3.1,4.49c-2.32-3-7.47-7.51-15.35-13.44h9.54l.11,0a5.88,5.88,0,0,0,3.39-3.19,14.19,14.19,0,0,0,1.5-7c0-8.68-4.56-9.92-4.75-10l-.12,0H236.57c-4.61-3-9.61-6.3-15.24-9.91l2.74-1.55c14.36-8,19.93-11.58,31.11-19.72,17.1,12.14,28.87,29.41,32,38.18l-.07.26c0,1.08.08,2.26.15,3.51C287.52,967,287.88,973.09,284.66,979.62Z"/></g></svg>