<svg id="Layer_1" data-name="Layer 1" xmlns="http://www.w3.org/2000/svg" viewBox="0 0 598 593"><defs><style>.cls-1{fill:#c9c9c9;}.cls-2{fill:#fff;}</style></defs><title>logo-light-greyscale</title><path class="cls-1" d="M207.66,266.67c0,44.61,204.45,133.82,204.45,181.4V397.15c0-47.58-204.45-139.4-204.45-184Z"/><path class="cls-1" d="M207.66,171.51c0,44.61,204.45,133.82,204.45,181.4V302c0-47.58-204.45-139.39-204.45-184Z"/><path class="cls-2" d="M412.11,88.88v2.39c0,26.53-63.95,67-120.35,105.41-13.34,9-26.25,17.84-37.7,26.39-9.86,7.39-18.56,14.5-25.81,21.17-10.73,9.86-18,18.85-20,26.68v.14a14.55,14.55,0,0,0-.58,4.21V221.62a13.54,13.54,0,0,1,.58-4.06v-.29c1.59-6.24,6.67-13.2,14.06-20.74,8.12-8.26,19.14-17.11,31.76-26.38,40.86-29.92,98.93-63.76,132.1-92.7q5.1,1.86,10.13,4Q404.38,84.86,412.11,88.88Z"/><path class="cls-2" d="M343.14,66.46C302.91,94.71,255,124.38,228.25,149c-10.73,9.86-18,18.85-20,26.69v.14a14.51,14.51,0,0,0-.58,4.21V126.5a14.51,14.51,0,0,1,.58-4.21v-.14c3.8-14.6,25.74-33.07,54-53a225.16,225.16,0,0,1,80.89-2.65Z"/><path class="cls-2" d="M412.11,296.44v50.89a9.44,9.44,0,0,1-.29,2.76c-.87,6.67-5.51,14.07-12.76,22.19s-17.4,16.67-29,25.66c-40.65,31.58-101.15,67.34-135.66,96.9q-5.51-2-10.93-4.28-8.07-3.42-15.81-7.44v-5.29c0-25.8,68.44-66.55,126.15-105.55,13.05-8.71,25.52-17.4,36.39-25.67a263.86,263.86,0,0,0,25.52-21.9c9.14-9.42,15.08-18,16.1-25.52A9.34,9.34,0,0,0,412.11,296.44Z"/><path class="cls-2" d="M412.11,391.56v51.33a15.24,15.24,0,0,1-.15,2.61c-2.29,15.67-24.91,35.84-54.31,57.37a225.22,225.22,0,0,1-81.06,2.66c42.42-28.91,93.32-59.9,119-85.7,9.13-9.28,15.08-17.83,16.24-25.37A22.75,22.75,0,0,0,412.11,391.56Z"/><path class="cls-2" d="M309.88,74a211.3,211.3,0,1,1-82.51,16.65A210.6,210.6,0,0,1,309.88,74m0-20c-128.13,0-232,103.87-232,232s103.87,232,232,232,232-103.87,232-232S438,54,309.88,54Z"/></svg>